# xmcd
#
# Track frame offsets:
#	182
#	14085
#	27292
#	49840
#	64735
#	84347
#	102485
#	117172
#	135002
#	151705
#	172815
#
# Disc length: 2517 seconds
#
# Revision: 5
# Processed by: cddbd v1.5.2PL0 Copyright (c) Steve Scherf et al.
# Submitted via: EZCDAudioConverter 6.0.8.1
#
DISCID=7d09d30b
DTITLE=Kevin Sharp - Love is
DYEAR=1998
DGENRE=Country
TTITLE0=Kiss The Girl
TTITLE1=We Can Get Though This
TTITLE2=If She Only Knew
TTITLE3=She Just Has To Be Mine
TTITLE4=Still Love
TTITLE5=I'm Trying
TTITLE6=Typical
TTITLE7=What Other Man
TTITLE8=So Tears Won't Fall
TTITLE9=Scared Like That Again
TTITLE10=Her Heart Is Only Human
EXTD=
EXTT0=
EXTT1=
EXTT2=
EXTT3=
EXTT4=
EXTT5=
EXTT6=
EXTT7=
EXTT8=
EXTT9=
EXTT10=
PLAYORDER=
